<svg width="124" height="32" viewBox="0 0 124 32" fill="none" xmlns="http://www.w3.org/2000/svg">
<path d="M8.27273 1.72727L12.0909 8.5H12.2727L16.1364 1.72727H23.1818L16.2273 13.3636L23.4545 25H16.2273L12.2727 18.0909H12.0909L8.13636 25H0.954545L8.09091 13.3636L1.18182 1.72727H8.27273ZM33.4545 25.3182C31.5909 25.3182 29.9848 24.9621 28.6364 24.25C27.2955 23.5303 26.2614 22.5 25.5341 21.1591C24.8144 19.8106 24.4545 18.197 24.4545 16.3182C24.4545 14.5152 24.8182 12.9394 25.5455 11.5909C26.2727 10.2424 27.2992 9.19318 28.625 8.44318C29.9508 7.69318 31.5152 7.31818 33.3182 7.31818C34.6364 7.31818 35.8295 7.52273 36.8977 7.93182C37.9659 8.34091 38.8788 8.93561 39.6364 9.71591C40.3939 10.4886 40.9773 11.428 41.3864 12.5341C41.7955 13.6402 42 14.8864 42 16.2727V17.7273H26.4091V14.2727H36.2273C36.2197 13.7727 36.0909 13.3333 35.8409 12.9545C35.5985 12.5682 35.2689 12.2689 34.8523 12.0568C34.4432 11.8371 33.9773 11.7273 33.4545 11.7273C32.947 11.7273 32.4811 11.8371 32.0568 12.0568C31.6326 12.2689 31.2917 12.5644 31.0341 12.9432C30.7841 13.322 30.6515 13.7652 30.6364 14.2727V18C30.6364 18.5606 30.7538 19.0606 30.9886 19.5C31.2235 19.9394 31.5606 20.2841 32 20.5341C32.4394 20.7841 32.9697 20.9091 33.5909 20.9091C34.0227 20.9091 34.4167 20.8485 34.7727 20.7273C35.1364 20.6061 35.447 20.4318 35.7045 20.2045C35.9621 19.9697 36.1515 19.6894 36.2727 19.3636H42C41.803 20.5758 41.3371 21.6288 40.6023 22.5227C39.8674 23.4091 38.8939 24.0985 37.6818 24.5909C36.4773 25.0758 35.0682 25.3182 33.4545 25.3182ZM44.5597 31.5455V7.54545H50.7869V10.5909H50.9233C51.1506 10 51.4839 9.45833 51.9233 8.96591C52.3627 8.46591 52.9081 8.06818 53.5597 7.77273C54.2112 7.4697 54.9688 7.31818 55.8324 7.31818C56.9839 7.31818 58.0786 7.625 59.1165 8.23864C60.1619 8.85227 61.0104 9.81818 61.6619 11.1364C62.321 12.4545 62.6506 14.1667 62.6506 16.2727C62.6506 18.2879 62.3362 19.9583 61.7074 21.2841C61.0862 22.6098 60.2528 23.5985 59.2074 24.25C58.1695 24.9015 57.0294 25.2273 55.7869 25.2273C54.9688 25.2273 54.2377 25.0947 53.5938 24.8295C52.9574 24.5568 52.4119 24.1894 51.9574 23.7273C51.5104 23.2576 51.1657 22.7273 50.9233 22.1364H50.8324V31.5455H44.5597ZM50.696 16.2727C50.696 17.1212 50.8059 17.8561 51.0256 18.4773C51.2528 19.0909 51.571 19.5682 51.9801 19.9091C52.3968 20.2424 52.893 20.4091 53.4688 20.4091C54.0445 20.4091 54.5331 20.2462 54.9347 19.9205C55.3438 19.5871 55.6544 19.1136 55.8665 18.5C56.0862 17.8788 56.196 17.1364 56.196 16.2727C56.196 15.4091 56.0862 14.6705 55.8665 14.0568C55.6544 13.4356 55.3438 12.9621 54.9347 12.6364C54.5331 12.303 54.0445 12.1364 53.4688 12.1364C52.893 12.1364 52.3968 12.303 51.9801 12.6364C51.571 12.9621 51.2528 13.4356 51.0256 14.0568C50.8059 14.6705 50.696 15.4091 50.696 16.2727ZM73.642 25.3182C71.7784 25.3182 70.1723 24.9621 68.8239 24.25C67.483 23.5303 66.4489 22.5 65.7216 21.1591C65.0019 19.8106 64.642 18.197 64.642 16.3182C64.642 14.5152 65.0057 12.9394 65.733 11.5909C66.4602 10.2424 67.4867 9.19318 68.8125 8.44318C70.1383 7.69318 71.7027 7.31818 73.5057 7.31818C74.8239 7.31818 76.017 7.52273 77.0852 7.93182C78.1534 8.34091 79.0663 8.93561 79.8239 9.71591C80.5814 10.4886 81.1648 11.428 81.5739 12.5341C81.983 13.6402 82.1875 14.8864 82.1875 16.2727V17.7273H66.5966V14.2727H76.4148C76.4072 13.7727 76.2784 13.3333 76.0284 12.9545C75.786 12.5682 75.4564 12.2689 75.0398 12.0568C74.6307 11.8371 74.1648 11.7273 73.642 11.7273C73.1345 11.7273 72.6686 11.8371 72.2443 12.0568C71.8201 12.2689 71.4792 12.5644 71.2216 12.9432C70.9716 13.322 70.839 13.7652 70.8239 14.2727V18C70.8239 18.5606 70.9413 19.0606 71.1761 19.5C71.411 19.9394 71.7481 20.2841 72.1875 20.5341C72.6269 20.7841 73.1572 20.9091 73.7784 20.9091C74.2102 20.9091 74.6042 20.8485 74.9602 20.7273C75.3239 20.6061 75.6345 20.4318 75.892 20.2045C76.1496 19.9697 76.339 19.6894 76.4602 19.3636H82.1875C81.9905 20.5758 81.5246 21.6288 80.7898 22.5227C80.0549 23.4091 79.0814 24.0985 77.8693 24.5909C76.6648 25.0758 75.2557 25.3182 73.642 25.3182ZM84.7472 25V7.54545H90.8381V10.8636H91.0199C91.3381 9.63636 91.8419 8.73864 92.5312 8.17045C93.2282 7.60227 94.0426 7.31818 94.9744 7.31818C95.2472 7.31818 95.5161 7.34091 95.7812 7.38636C96.054 7.42424 96.3153 7.48106 96.5653 7.55682V12.9091C96.2547 12.803 95.8722 12.7235 95.4176 12.6705C94.9631 12.6174 94.5729 12.5909 94.2472 12.5909C93.6335 12.5909 93.0805 12.7311 92.5881 13.0114C92.1032 13.2841 91.7206 13.6705 91.4403 14.1705C91.16 14.6629 91.0199 15.2424 91.0199 15.9091V25H84.7472ZM98.6222 25V7.54545H104.895V25H98.6222ZM101.759 5.72727C100.91 5.72727 100.183 5.44697 99.5767 4.88636C98.9706 4.32576 98.6676 3.65151 98.6676 2.86364C98.6676 2.07576 98.9706 1.40151 99.5767 0.840908C100.183 0.280303 100.91 0 101.759 0C102.615 0 103.342 0.280303 103.94 0.840908C104.546 1.40151 104.849 2.07576 104.849 2.86364C104.849 3.65151 104.546 4.32576 103.94 4.88636C103.342 5.44697 102.615 5.72727 101.759 5.72727ZM112.955 25.2727C111.841 25.2727 110.856 25.0909 110 24.7273C109.152 24.3561 108.485 23.7955 108 23.0455C107.515 22.2955 107.273 21.3409 107.273 20.1818C107.273 19.2273 107.436 18.4129 107.761 17.7386C108.087 17.0568 108.542 16.5 109.125 16.0682C109.708 15.6364 110.386 15.3068 111.159 15.0795C111.939 14.8523 112.78 14.7045 113.682 14.6364C114.659 14.5606 115.443 14.4697 116.034 14.3636C116.633 14.25 117.064 14.0947 117.33 13.8977C117.595 13.6932 117.727 13.4242 117.727 13.0909V13.0455C117.727 12.5909 117.553 12.2424 117.205 12C116.856 11.7576 116.409 11.6364 115.864 11.6364C115.265 11.6364 114.777 11.7689 114.398 12.0341C114.027 12.2917 113.803 12.6894 113.727 13.2273H107.955C108.03 12.1667 108.367 11.1894 108.966 10.2955C109.572 9.39394 110.455 8.67424 111.614 8.13636C112.773 7.59091 114.22 7.31818 115.955 7.31818C117.205 7.31818 118.326 7.46591 119.318 7.76136C120.311 8.04924 121.155 8.45455 121.852 8.97727C122.549 9.49242 123.08 10.0985 123.443 10.7955C123.814 11.4848 124 12.2348 124 13.0455V25H118.136V22.5455H118C117.652 23.197 117.227 23.7235 116.727 24.125C116.235 24.5265 115.67 24.8182 115.034 25C114.405 25.1818 113.712 25.2727 112.955 25.2727ZM115 21.3182C115.477 21.3182 115.924 21.2197 116.341 21.0227C116.765 20.8258 117.11 20.5417 117.375 20.1705C117.64 19.7992 117.773 19.3485 117.773 18.8182V17.3636C117.606 17.4318 117.428 17.4962 117.239 17.5568C117.057 17.6174 116.86 17.6742 116.648 17.7273C116.443 17.7803 116.223 17.8295 115.989 17.875C115.761 17.9205 115.523 17.9621 115.273 18C114.788 18.0758 114.39 18.2008 114.08 18.375C113.777 18.5417 113.549 18.75 113.398 19C113.254 19.2424 113.182 19.5152 113.182 19.8182C113.182 20.303 113.352 20.6742 113.693 20.9318C114.034 21.1894 114.47 21.3182 115 21.3182Z" fill="white"/>
</svg>
